<svg width="30" height="30" viewBox="0 0 30 30" fill="none" xmlns="http://www.w3.org/2000/svg">
<path d="M0 15C0 6.71573 6.71573 0 15 0C23.2843 0 30 6.71573 30 15C30 23.2843 23.2843 30 15 30H0V15Z" fill="#0156FF"/>
<path d="M10.1364 10.8C9.83498 10.8 9.54594 10.9198 9.33283 11.1329C9.11972 11.346 9 11.635 9 11.9364V18.1864H10.1364C10.1364 18.6385 10.3159 19.072 10.6356 19.3917C10.9553 19.7114 11.3888 19.891 11.8409 19.891C12.293 19.891 12.7265 19.7114 13.0462 19.3917C13.3659 19.072 13.5455 18.6385 13.5455 18.1864H16.9545C16.9545 18.6385 17.1341 19.072 17.4538 19.3917C17.7735 19.7114 18.207 19.891 18.6591 19.891C19.1112 19.891 19.5447 19.7114 19.8644 19.3917C20.1841 19.072 20.3636 18.6385 20.3636 18.1864H21.5V15.3455L19.7955 13.0728H18.0909V10.8H10.1364ZM18.0909 13.925H19.5114L20.6307 15.3455H18.0909V13.925ZM11.8409 17.3341C12.0669 17.3341 12.2837 17.4239 12.4436 17.5838C12.6034 17.7436 12.6932 17.9604 12.6932 18.1864C12.6932 18.4124 12.6034 18.6292 12.4436 18.7891C12.2837 18.9489 12.0669 19.0387 11.8409 19.0387C11.6149 19.0387 11.3981 18.9489 11.2383 18.7891C11.0784 18.6292 10.9886 18.4124 10.9886 18.1864C10.9886 17.9604 11.0784 17.7436 11.2383 17.5838C11.3981 17.4239 11.6149 17.3341 11.8409 17.3341ZM18.6591 17.3341C18.8851 17.3341 19.1019 17.4239 19.2617 17.5838C19.4216 17.7436 19.5114 17.9604 19.5114 18.1864C19.5114 18.4124 19.4216 18.6292 19.2617 18.7891C19.1019 18.9489 18.8851 19.0387 18.6591 19.0387C18.4331 19.0387 18.2163 18.9489 18.0564 18.7891C17.8966 18.6292 17.8068 18.4124 17.8068 18.1864C17.8068 17.9604 17.8966 17.7436 18.0564 17.5838C18.2163 17.4239 18.4331 17.3341 18.6591 17.3341Z" fill="white"/>
</svg>
