<svg width="65" height="66" viewBox="0 0 65 66" fill="none" xmlns="http://www.w3.org/2000/svg">
<circle cx="32.5" cy="33.4368" r="32.5" fill="#0156FF"/>
<g clip-path="url(#clip0_925_1809)">
<path d="M35.82 45.585L33 48.405L30.18 45.585C24.6375 44.305 20.5 39.335 20.5 33.405C20.5 26.505 26.1 20.905 33 20.905C39.9 20.905 45.5 26.505 45.5 33.405C45.5 39.335 41.3625 44.305 35.82 45.585ZM25.5287 37.675C27.3637 40.4125 30.1187 42.155 33.2 42.155C36.28 42.155 39.0362 40.4138 40.87 37.675C38.7897 35.7308 36.0474 34.651 33.2 34.655C30.3521 34.6507 27.6094 35.7305 25.5287 37.675V37.675ZM33 32.155C33.9946 32.155 34.9484 31.7599 35.6517 31.0567C36.3549 30.3534 36.75 29.3996 36.75 28.405C36.75 27.4105 36.3549 26.4566 35.6517 25.7534C34.9484 25.0501 33.9946 24.655 33 24.655C32.0054 24.655 31.0516 25.0501 30.3483 25.7534C29.6451 26.4566 29.25 27.4105 29.25 28.405C29.25 29.3996 29.6451 30.3534 30.3483 31.0567C31.0516 31.7599 32.0054 32.155 33 32.155V32.155Z" fill="white"/>
</g>
<defs>
<clipPath id="clip0_925_1809">
<rect width="30" height="30" fill="white" transform="translate(18 18.405)"/>
</clipPath>
</defs>
</svg>
