<svg width="65" height="66" viewBox="0 0 65 66" fill="none" xmlns="http://www.w3.org/2000/svg">
<circle cx="32.5" cy="33.4368" r="32.5" fill="#0156FF"/>
<path d="M32.9111 21.3291C26.1059 21.3291 20.5693 26.8656 20.5693 33.6709V38.7841C20.5693 40.0479 21.6764 41.0759 23.0377 41.0759H24.2719C24.5992 41.0759 24.9131 40.9459 25.1446 40.7145C25.376 40.483 25.506 40.1691 25.506 39.8418V33.4944C25.506 33.1671 25.376 32.8531 25.1446 32.6217C24.9131 32.3902 24.5992 32.2602 24.2719 32.2602H23.1512C23.8374 27.4839 27.9472 23.7975 32.9111 23.7975C37.875 23.7975 41.9848 27.4839 42.671 32.2602H41.5504C41.223 32.2602 40.9091 32.3902 40.6777 32.6217C40.4462 32.8531 40.3162 33.1671 40.3162 33.4944V41.0759C40.3162 42.4372 39.2091 43.5443 37.8478 43.5443H35.3795V42.3101H30.4428V46.0126H37.8478C40.5704 46.0126 42.7845 43.7985 42.7845 41.0759C44.1458 41.0759 45.2529 40.0479 45.2529 38.7841V33.6709C45.2529 26.8656 39.7164 21.3291 32.9111 21.3291Z" fill="white"/>
</svg>
