<svg width="65" height="66" viewBox="0 0 65 66" fill="none" xmlns="http://www.w3.org/2000/svg">
<circle cx="32.5" cy="33.4368" r="32.5" fill="#0156FF"/>
<g clip-path="url(#clip0_925_1833)">
<path d="M45.2047 21.9314C45.1293 21.7436 44.9844 21.5921 44.8001 21.5084C44.6158 21.4247 44.4063 21.4153 44.2152 21.4821C44.0242 21.5489 43.8662 21.6868 43.7742 21.8671C43.6823 22.0474 43.6633 22.2562 43.7214 22.4501C44.9291 25.9211 42.5319 28.5133 40.7041 29.9017L39.9657 28.8435C39.7174 28.4886 39.1623 28.1935 38.7307 28.1883L34.5863 28.2065C34.08 28.2218 33.5873 28.3736 33.1602 28.6459L20.948 37.209C20.6639 37.4089 20.4707 37.7132 20.4105 38.0553C20.3503 38.3974 20.4281 38.7494 20.6269 39.0342L26.1766 46.9746C26.5926 47.5661 27.2569 47.4946 27.8497 47.0812L40.0619 38.5168C40.4129 38.2685 40.8185 37.7329 40.9615 37.3234L42.2589 33.2349C42.4019 32.8267 42.3148 32.204 42.0665 31.8491L41.6167 31.2043C44.0711 29.3232 46.6191 25.9991 45.2047 21.9314ZM39.5224 34.0968C39.2974 34.2543 39.0436 34.3659 38.7755 34.4253C38.5074 34.4846 38.2302 34.4906 37.9597 34.4428C37.6893 34.395 37.431 34.2943 37.1994 34.1467C36.9679 33.999 36.7678 33.8071 36.6104 33.582C36.2918 33.1266 36.1669 32.5633 36.2632 32.0159C36.3595 31.4685 36.669 30.9817 37.1239 30.6622C37.4805 30.4124 37.9063 30.2802 38.3416 30.2842C38.777 30.2881 39.2003 30.428 39.5523 30.6843C39.1987 30.8975 38.9556 31.0223 38.9101 31.0418C38.749 31.1187 38.6187 31.248 38.5406 31.4085C38.4626 31.5691 38.4414 31.7514 38.4805 31.9256C38.5196 32.0998 38.6168 32.2555 38.756 32.3673C38.8952 32.479 39.0683 32.5402 39.2468 32.5407C39.3586 32.5407 39.473 32.5147 39.5809 32.464C39.8331 32.3444 40.1035 32.2027 40.3856 32.035C40.4505 32.4251 40.4039 32.8256 40.2512 33.1904C40.0985 33.5551 39.8459 33.8693 39.5224 34.0968Z" fill="white"/>
</g>
<defs>
<clipPath id="clip0_925_1833">
<rect width="26" height="26" fill="white" transform="translate(20 21.405)"/>
</clipPath>
</defs>
</svg>
